<svg width="44" height="45" viewBox="0 0 44 45" fill="none" xmlns="http://www.w3.org/2000/svg">
<g id="apple" clip-path="url(#clip0_243_148)">
<g id="Group">
<g id="Group_2">
<path id="Vector" d="M30.2483 0.5C27.9026 0.662249 25.1608 2.16374 23.5631 4.11898C22.1056 5.89272 20.9066 8.5272 21.3741 11.0874C23.9371 11.1672 26.5853 9.62995 28.1198 7.64171C29.5553 5.79097 30.6416 3.17298 30.2483 0.5Z" fill="#444B59"/>
</g>
</g>
<g id="Group_3">
<g id="Group_4">
<path id="Vector_2" d="M39.5183 15.2621C37.266 12.4378 34.1008 10.7988 31.1116 10.7988C27.1653 10.7988 25.4961 12.6881 22.7544 12.6881C19.9274 12.6881 17.7796 10.8043 14.3669 10.8043C11.0147 10.8043 7.44519 12.8531 5.18195 16.3565C2.00022 21.29 2.54472 30.5657 7.70094 38.4664C9.54618 41.2934 12.0102 44.4724 15.2331 44.4999C18.1014 44.5274 18.9099 42.6601 22.7956 42.6409C26.6813 42.6189 27.4183 44.5246 30.2811 44.4944C33.5068 44.4696 36.1055 40.9469 37.9508 38.1199C39.2735 36.0932 39.7658 35.0729 40.7915 32.785C33.3308 29.9442 32.1345 19.3348 39.5183 15.2621Z" fill="#444B59"/>
</g>
</g>
</g>
<defs>
<clipPath id="clip0_243_148">
<rect width="44" height="44" fill="white" transform="translate(0 0.5)"/>
</clipPath>
</defs>
</svg>
