<svg width="38" height="39" viewBox="0 0 38 39" fill="none" xmlns="http://www.w3.org/2000/svg">
<g id="google" clip-path="url(#clip0_243_142)">
<path id="Vector" d="M8.4216 23.464L7.09888 28.4019L2.26434 28.5042C0.819524 25.8244 0 22.7583 0 19.5001C0 16.3495 0.766235 13.3783 2.12444 10.7622H2.12548L6.42957 11.5513L8.31502 15.8296C7.9204 16.98 7.70532 18.215 7.70532 19.5001C7.70547 20.8948 7.95811 22.2312 8.4216 23.464Z" fill="#FBBB00"/>
<path id="Vector_2" d="M37.6678 15.9504C37.886 17.0998 37.9998 18.2868 37.9998 19.4999C37.9998 20.8602 37.8568 22.187 37.5843 23.4669C36.6594 27.8223 34.2426 31.6254 30.8947 34.3168L30.8936 34.3157L25.4724 34.0391L24.7051 29.2494C26.9266 27.9466 28.6628 25.9077 29.5773 23.4669H19.4175V15.9504H29.7255H37.6678Z" fill="#518EF8"/>
<path id="Vector_3" d="M30.8936 34.3158L30.8946 34.3168C27.6386 36.934 23.5024 38.4999 18.9998 38.4999C11.7642 38.4999 5.47331 34.4557 2.26416 28.5041L8.42142 23.4639C10.026 27.7461 14.1569 30.7945 18.9998 30.7945C21.0814 30.7945 23.0316 30.2318 24.705 29.2494L30.8936 34.3158Z" fill="#28B446"/>
<path id="Vector_4" d="M31.1277 4.87416L24.9725 9.91331C23.2406 8.83076 21.1934 8.20539 19.0001 8.20539C14.0475 8.20539 9.83933 11.3936 8.31517 15.8294L2.12555 10.7621H2.12451C5.28667 4.66538 11.6569 0.5 19.0001 0.5C23.6102 0.5 27.8371 2.14216 31.1277 4.87416Z" fill="#F14336"/>
</g>
<defs>
<clipPath id="clip0_243_142">
<rect width="38" height="38" fill="white" transform="translate(0 0.5)"/>
</clipPath>
</defs>
</svg>
